<svg width="200" height="240" viewBox="0 0 200 240" xmlns="http://www.w3.org/2000/svg" role="img" aria-label="PatchMaster">
  <defs>
    <linearGradient id="g1" x1="0%" y1="0%" x2="0%" y2="100%">
      <stop offset="0%" stop-color="#ff4d4d"/>
      <stop offset="100%" stop-color="#d60036"/>
    </linearGradient>
    <linearGradient id="g2" x1="0%" y1="0%" x2="100%" y2="100%">
      <stop offset="0%" stop-color="#0f172a"/>
      <stop offset="100%" stop-color="#1f2937"/>
    </linearGradient>
  </defs>
  <path d="M100 230c-6 0-12-2-17-6C55 204 30 160 30 116V52c0-6 4-11 10-13l56-19a24 24 0 0 1 16 0l56 19c6 2 10 7 10 13v64c0 44-25 88-53 108a28 28 0 0 1-25 6z" fill="url(#g2)" stroke="#e5e7eb" stroke-width="6"/>
  <path d="M108 26.5v183.5a7 7 0 0 1-10.3 6.2c-19.6-10.7-41.7-46.3-41.7-97.7V62.7c0-3.2 2-6.1 5-7.2l43.7-15.3a7 7 0 0 1 3.3-.7z" fill="url(#g1)"/>
  <circle cx="138" cy="84" r="11" fill="#22c55e" stroke="#0f172a" stroke-width="4"/>
  <path d="M132 84l4 4 8-8" stroke="#0f172a" stroke-width="3.5" fill="none" stroke-linecap="round" stroke-linejoin="round"/>
</svg>
